<svg width="14" height="14" viewBox="0 0 14 14" fill="none" xmlns="http://www.w3.org/2000/svg">
<g clip-path="url(#clip0)">
<path fill-rule="evenodd" clip-rule="evenodd" d="M3.30283 13.4167L0.170917 10.2871C0.0571667 10.1733 0 10.0246 0 9.87467C0 9.72534 0.0571667 9.576 0.170917 9.46225L8.8795 0.754253C8.99325 0.641086 9.14258 0.583336 9.29192 0.583336C9.44067 0.583336 9.59058 0.641086 9.70433 0.754253L13.8291 4.88017C13.9434 4.99392 14 5.14325 14 5.29317C14 5.4425 13.9434 5.59125 13.8291 5.70559L7.28642 12.25H10.5029V13.4167H3.30283ZM5.43608 12.25L2.23592 9.04984L1.40817 9.87467L3.78583 12.25H5.43608ZM9.289 1.99442L3.06075 8.22442L6.36125 11.5255L12.5889 5.29434L9.289 1.99442Z" fill="#E0D71C"/>
</g>
<defs>
<clipPath id="clip0">
<rect width="14" height="14" fill="white"/>
</clipPath>
</defs>
</svg>
